<svg width="20" height="20" viewBox="0 0 20 20" fill="none" xmlns="http://www.w3.org/2000/svg">
<path d="M0 4C0 1.79086 1.79086 0 4 0H16C18.2091 0 20 1.79086 20 4V16C20 18.2091 18.2091 20 16 20H4C1.79086 20 0 18.2091 0 16V4Z" fill="#2D1717"/>
<path fill-rule="evenodd" clip-rule="evenodd" d="M3 5.46154L5.30769 3.15385L7.61538 2H12.2308L14.5385 4.30769L15.5 6.5L15 8.5L13.3846 9.5L12.2308 12.2566L12.8077 14.1154H14.5385L16.8462 12.3846L18 13.5385L16.8462 14.6923L14.5385 17H12.2308L9.99059 14.6923V12.3846L10.5 8.92308L12.2308 7.76923L9.99059 6.03846H7.61538L5.30769 7.76923L5.88462 10.0769L5.30769 11.2308L4 12L3 9V5.46154ZM5.5 18C6.88071 18 8 16.8807 8 15.5C8 14.1193 6.88071 13 5.5 13C4.11929 13 3 14.1193 3 15.5C3 16.8807 4.11929 18 5.5 18Z" fill="#FFE5CE"/>
</svg>
