<svg width="20" height="20" viewBox="0 0 20 20" fill="none" xmlns="http://www.w3.org/2000/svg">
<path d="M0 4C0 1.79086 1.79086 0 4 0H16C18.2091 0 20 1.79086 20 4V16C20 18.2091 18.2091 20 16 20H4C1.79086 20 0 18.2091 0 16V4Z" fill="#2D1717"/>
<path fill-rule="evenodd" clip-rule="evenodd" d="M10 4.25L15 8V5.9754L10 2L5 5.9754V8L10 4.25ZM10 15.75L5 12V14.0246L10 18L15 14.0246V12L10 15.75ZM10 12C11.1046 12 12 11.1046 12 10C12 8.89543 11.1046 8 10 8C8.89543 8 8 8.89543 8 10C8 11.1046 8.89543 12 10 12Z" fill="#6DC4FD"/>
</svg>
