<svg width="20" height="20" viewBox="0 0 20 20" fill="none" xmlns="http://www.w3.org/2000/svg">
<path d="M0 4C0 1.79086 1.79086 0 4 0H16C18.2091 0 20 1.79086 20 4V16C20 18.2091 18.2091 20 16 20H4C1.79086 20 0 18.2091 0 16V4Z" fill="#2D1717"/>
<path fill-rule="evenodd" clip-rule="evenodd" d="M5 7L2 2L7 5L5 7ZM5 13L2 18L7 15L5 13ZM18 2L15 7L13 5L18 2ZM15 13L18 18L13 15L15 13ZM8 11.697L2 9.75757L8 7.81818L10 2L12 7.81818L18 9.75757L12 11.697L10 18L8 11.697ZM9.25 10.4848L7 9.75758L9.25 9.0303L10 6.84848L10.75 9.0303L13 9.75758L10.75 10.4848L10 12.6667L9.25 10.4848Z" fill="#FEE5CE"/>
</svg>
