<svg width="20" height="20" viewBox="0 0 20 20" fill="none" xmlns="http://www.w3.org/2000/svg">
<path d="M0 4C0 1.79086 1.79086 0 4 0H16C18.2091 0 20 1.79086 20 4V16C20 18.2091 18.2091 20 16 20H4C1.79086 20 0 18.2091 0 16V4Z" fill="#2D1717"/>
<path fill-rule="evenodd" clip-rule="evenodd" d="M3.50001 2C2.67158 2 2.00001 2.67157 2.00001 3.5C2.00001 4.32843 2.67158 5 3.50001 5C4.32843 5 5.00001 4.32843 5.00001 3.5C5.00001 2.67157 4.32843 2 3.50001 2ZM10.5812 4.18627L10 3.7711L9.41877 4.18627L2.41877 9.18627L1.27954 10L2.41877 10.8137L9.41877 15.8137L10 16.2289L10.5812 15.8137L17.5812 10.8137L18.7205 10L17.5812 9.18627L10.5812 4.18627ZM10 13.7711L4.72047 10L10 6.2289L15.2795 10L10 13.7711ZM15 3.5C15 2.67157 15.6716 2 16.5 2C17.3284 2 18 2.67157 18 3.5C18 4.32843 17.3284 5 16.5 5C15.6716 5 15 4.32843 15 3.5ZM3.50001 15C2.67158 15 2.00001 15.6716 2.00001 16.5C2.00001 17.3284 2.67158 18 3.50001 18C4.32843 18 5.00001 17.3284 5.00001 16.5C5.00001 15.6716 4.32843 15 3.50001 15ZM15 16.5C15 15.6716 15.6716 15 16.5 15C17.3284 15 18 15.6716 18 16.5C18 17.3284 17.3284 18 16.5 18C15.6716 18 15 17.3284 15 16.5ZM10 8C8.89544 8 8.00001 8.89543 8.00001 10C8.00001 11.1046 8.89544 12 10 12C11.1046 12 12 11.1046 12 10C12 8.89543 11.1046 8 10 8Z" fill="#E88CF6"/>
</svg>
