<svg width="20" height="20" viewBox="0 0 20 20" fill="none" xmlns="http://www.w3.org/2000/svg">
<path d="M0 4C0 1.79086 1.79086 0 4 0H16C18.2091 0 20 1.79086 20 4V16C20 18.2091 18.2091 20 16 20H4C1.79086 20 0 18.2091 0 16V4Z" fill="#80DBFF"/>
<path d="M5.78815 12L3.39752 11.9922L3.73346 10.0938L5.89752 10.1094C6.24127 10.1042 6.53554 10.0208 6.78033 9.85938C7.02513 9.69271 7.21523 9.47917 7.35065 9.21875C7.49127 8.95312 7.58502 8.65885 7.6319 8.33594C7.66315 8.09635 7.66575 7.84115 7.63971 7.57031C7.61367 7.29948 7.53033 7.0651 7.38971 6.86719C7.25429 6.66927 7.03554 6.5599 6.73346 6.53906L5.07721 6.52344L3.43658 16H1.21002L3.17096 4.625L6.83502 4.63281C7.52773 4.65365 8.11106 4.83073 8.58502 5.16406C9.06419 5.49219 9.41315 5.93229 9.6319 6.48438C9.85586 7.03646 9.93919 7.64844 9.8819 8.32031C9.81419 9.07552 9.59544 9.72656 9.22565 10.2734C8.86106 10.8203 8.3845 11.2474 7.79596 11.5547C7.20742 11.8568 6.53815 12.0052 5.78815 12Z" fill="black"/>
<path d="M14.6963 12L12.3056 11.9922L12.6416 10.0938L14.8056 10.1094C15.1494 10.1042 15.4437 10.0208 15.6885 9.85938C15.9333 9.69271 16.1234 9.47917 16.2588 9.21875C16.3994 8.95312 16.4931 8.65885 16.54 8.33594C16.5713 8.09635 16.5739 7.84115 16.5478 7.57031C16.5218 7.29948 16.4385 7.0651 16.2978 6.86719C16.1624 6.66927 15.9437 6.5599 15.6416 6.53906L13.9853 6.52344L12.3447 16H10.1181L12.0791 4.625L15.7431 4.63281C16.4359 4.65365 17.0192 4.83073 17.4931 5.16406C17.9723 5.49219 18.3213 5.93229 18.54 6.48438C18.764 7.03646 18.8473 7.64844 18.79 8.32031C18.7223 9.07552 18.5036 9.72656 18.1338 10.2734C17.7692 10.8203 17.2926 11.2474 16.7041 11.5547C16.1155 11.8568 15.4463 12.0052 14.6963 12Z" fill="black"/>
</svg>
