<svg width="20" height="20" viewBox="0 0 20 20" fill="none" xmlns="http://www.w3.org/2000/svg">
<path d="M0 4C0 1.79086 1.79086 0 4 0H16C18.2091 0 20 1.79086 20 4V16C20 18.2091 18.2091 20 16 20H4C1.79086 20 0 18.2091 0 16V4Z" fill="#2D1717"/>
<path fill-rule="evenodd" clip-rule="evenodd" d="M8 6C9.10457 6 10 5.10457 10 4C10 2.89543 9.10457 2 8 2C6.89543 2 6 2.89543 6 4C6 5.10457 6.89543 6 8 6ZM17 8.5C17 9.88071 15.8807 11 14.5 11C13.1193 11 12 9.88071 12 8.5C12 7.11929 13.1193 6 14.5 6C15.8807 6 17 7.11929 17 8.5ZM11 14C11 16.2091 9.20914 18 7 18C4.79086 18 3 16.2091 3 14C3 11.7909 4.79086 10 7 10C9.20914 10 11 11.7909 11 14Z" fill="#F090FE"/>
</svg>
