<svg width="20" height="20" viewBox="0 0 20 20" fill="none" xmlns="http://www.w3.org/2000/svg">
<path d="M0 4C0 1.79086 1.79086 0 4 0H16C18.2091 0 20 1.79086 20 4V16C20 18.2091 18.2091 20 16 20H4C1.79086 20 0 18.2091 0 16V4Z" fill="#2D1717"/>
<path d="M5.59375 9H4.5625L4.73438 8.05469L5.64844 8.05859C5.95573 8.0612 6.20052 7.9987 6.38281 7.87109C6.56771 7.74089 6.70573 7.56641 6.79688 7.34766C6.88802 7.1263 6.95443 6.8763 6.99609 6.59766L7.12109 5.70703C7.14193 5.54297 7.15625 5.3776 7.16406 5.21094C7.17448 5.04427 7.16146 4.89062 7.125 4.75C7.08854 4.60938 7.01562 4.49609 6.90625 4.41016C6.79948 4.32161 6.64062 4.27344 6.42969 4.26562L5.36328 4.26172L5.53125 3.3125L6.47656 3.31641C6.82031 3.32422 7.11198 3.39453 7.35156 3.52734C7.59115 3.66016 7.78255 3.83854 7.92578 4.0625C8.07161 4.28646 8.16927 4.54036 8.21875 4.82422C8.26823 5.10807 8.27344 5.40625 8.23438 5.71875L8.10156 6.60156C8.04948 6.9375 7.95703 7.2526 7.82422 7.54688C7.69401 7.83854 7.52344 8.09375 7.3125 8.3125C7.10417 8.52865 6.85677 8.69792 6.57031 8.82031C6.28646 8.94271 5.96094 9.0026 5.59375 9ZM6.19531 3.3125L5.21094 9H4.09375L5.07422 3.3125H6.19531Z" fill="white"/>
<path d="M11.8125 8.05469L11.6445 9H9.24609L9.40625 8.05469H11.8125ZM10.5781 3.3125L9.59375 9H8.47656L9.45703 3.3125H10.5781ZM11.9141 5.61719L11.7539 6.53516H9.67188L9.82812 5.61719H11.9141ZM12.625 3.3125L12.457 4.26172H10.0625L10.2305 3.3125H12.625Z" fill="white"/>
<path d="M14.3906 3.3125L13.4062 9H12.2891L13.2695 3.3125H14.3906ZM15.7031 5.73047L15.5352 6.67578H13.5195L13.6875 5.73047H15.7031ZM16.332 3.3125L16.1641 4.26172H13.9414L14.1055 3.3125H16.332Z" fill="white"/>
<path d="M6 14L8 16L6 18L4 16L6 14Z" fill="#FFE5CE"/>
<path d="M10 14L12 16L10 18L8 16L10 14Z" fill="#6DC4FD"/>
<path d="M14 14L16 16L14 18L12 16L14 14Z" fill="#FFFB63"/>
<path d="M6 10L8 12L6 14L4 12L6 10Z" fill="#85FF95"/>
<path d="M10 10L12 12L10 14L8 12L10 10Z" fill="#FF6363"/>
<path d="M14 10L16 12L14 14L12 12L14 10Z" fill="#E88CF6"/>
</svg>
