<svg width="20" height="20" viewBox="0 0 20 20" fill="none" xmlns="http://www.w3.org/2000/svg">
<path d="M0 4C0 1.79086 1.79086 0 4 0H16C18.2091 0 20 1.79086 20 4V16C20 18.2091 18.2091 20 16 20H4C1.79086 20 0 18.2091 0 16V4Z" fill="#2D1717"/>
<path fill-rule="evenodd" clip-rule="evenodd" d="M5.04188 6.95812C3.87996 6.74294 3 5.72423 3 4.5C3 3.11929 4.11929 2 5.5 2C6.72423 2 7.74294 2.87996 7.95812 4.04188C9.12004 4.25706 10 5.27577 10 6.5C10 7.88071 8.88071 9 7.5 9C6.27577 9 5.25706 8.12004 5.04188 6.95812ZM14 15C14 17.2091 12.2091 19 10 19C7.79086 19 6 17.2091 6 15C6 12.7909 7.79086 11 10 11C12.2091 11 14 12.7909 14 15ZM18 6.5C18 7.88071 16.8807 9 15.5 9C14.2758 9 13.2571 8.12004 13.0419 6.95812C11.88 6.74294 11 5.72423 11 4.5C11 3.11929 12.1193 2 13.5 2C14.7242 2 15.7429 2.87996 15.9581 4.04188C17.12 4.25706 18 5.27577 18 6.5Z" fill="#90FF9F"/>
</svg>
