<svg width="20" height="20" viewBox="0 0 20 20" fill="none" xmlns="http://www.w3.org/2000/svg">
<path d="M0 4C0 1.79086 1.79086 0 4 0H16C18.2091 0 20 1.79086 20 4V16C20 18.2091 18.2091 20 16 20H4C1.79086 20 0 18.2091 0 16V4Z" fill="#2D1717"/>
<path fill-rule="evenodd" clip-rule="evenodd" d="M2 10L10 2L18 10V14L14 18H6L2 14V10ZM4 10.5L10 5L16 10.5V13.25L13 16H7L4 13.25V10.5ZM10 14C11.1046 14 12 13.1046 12 12C12 10.8954 11.1046 10 10 10C8.89543 10 8 10.8954 8 12C8 13.1046 8.89543 14 10 14Z" fill="#FF6363"/>
</svg>
