<svg width="20" height="20" viewBox="0 0 20 20" fill="none" xmlns="http://www.w3.org/2000/svg">
<path d="M0 4C0 1.79086 1.79086 0 4 0H16C18.2091 0 20 1.79086 20 4V16C20 18.2091 18.2091 20 16 20H4C1.79086 20 0 18.2091 0 16V4Z" fill="#2D1717"/>
<path fill-rule="evenodd" clip-rule="evenodd" d="M11.8421 3.93144C12.6097 3.93144 13.3396 4.07634 14 4.33736C12.8482 2.93276 10.8159 2 8.50102 2C4.91061 2 2 4.24393 2 7.01197C2 9.61366 4.5713 11.7523 7.86158 12C6.99908 11.1433 6.47369 10.0068 6.47369 8.76004C6.47369 6.09328 8.87722 3.93144 11.8421 3.93144ZM6 15.6626C6.66036 15.9237 7.39031 16.0686 8.15788 16.0686C11.1228 16.0686 13.5263 13.9067 13.5263 11.24C13.5263 9.99316 13.0009 8.85673 12.1384 8C15.4287 8.24765 18 10.3863 18 12.988C18 15.7561 15.0894 18 11.499 18C9.18411 18 7.15184 17.0672 6 15.6626ZM12 10C12 11.1046 11.1046 12 10 12C8.89543 12 8 11.1046 8 10C8 8.89543 8.89543 8 10 8C11.1046 8 12 8.89543 12 10Z" fill="#85FF95"/>
</svg>
