<svg width="20" height="20" viewBox="0 0 20 20" fill="none" xmlns="http://www.w3.org/2000/svg">
<path d="M0 4C0 1.79086 1.79086 0 4 0H16C18.2091 0 20 1.79086 20 4V16C20 18.2091 18.2091 20 16 20H4C1.79086 20 0 18.2091 0 16V4Z" fill="#2D1717"/>
<path fill-rule="evenodd" clip-rule="evenodd" d="M4.7 11L6.60282 13.7183L4.79055 16.7388L1.5625 11H4.7ZM13.6338 18H6.36619L8.16619 15H11.8338L13.6338 18ZM15.2094 16.7388L13.3972 13.7183L15.3 11H18.4375L15.2094 16.7388ZM18.4375 9H15.3L13.3972 6.28168L15.2094 3.26124L18.4375 9ZM13.6338 2L11.8338 5H8.16619L6.36619 2H13.6338ZM4.79055 3.26124L6.60282 6.28168L4.7 9H1.5625L4.79055 3.26124ZM6 10L8 7H12L14 10L12 13H8L6 10ZM8.66667 10L9.44444 9H10.5556L11.3333 10L10.5556 11H9.44444L8.66667 10Z" fill="#6DC4FD"/>
</svg>
