<svg width="20" height="20" viewBox="0 0 20 20" fill="none" xmlns="http://www.w3.org/2000/svg">
<path d="M0 4C0 1.79086 1.79086 0 4 0H16C18.2091 0 20 1.79086 20 4V16C20 18.2091 18.2091 20 16 20H4C1.79086 20 0 18.2091 0 16V4Z" fill="url(#paint0_linear_38_621)"/>
<path fill-rule="evenodd" clip-rule="evenodd" d="M2 6C2 3.79086 3.79086 2 6 2H14C16.2091 2 18 3.79086 18 6V14C18 16.2091 16.2091 18 14 18H6C3.79086 18 2 16.2091 2 14V6ZM10.5 3.5H14C15.3807 3.5 16.5 4.61929 16.5 6V9.5L10.5 3.5ZM9.5 3.5H6C4.61929 3.5 3.5 4.61929 3.5 6V9.5L9.5 3.5ZM3.5 10.5V14C3.5 15.3807 4.61929 16.5 6 16.5H9.5L3.5 10.5ZM10.5 16.5H14C15.3807 16.5 16.5 15.3807 16.5 14V10.5L10.5 16.5ZM10 14.1716L5.82843 10L10 5.82843L14.1716 10L10 14.1716Z" fill="black"/>
<defs>
<linearGradient id="paint0_linear_38_621" x1="10" y1="0" x2="10" y2="20" gradientUnits="userSpaceOnUse">
<stop stop-color="#FFA8FF"/>
<stop offset="0.182292" stop-color="#FF93D1"/>
<stop offset="0.453125" stop-color="#94E8FB"/>
<stop offset="0.765625" stop-color="#63EB67"/>
<stop offset="0.979167" stop-color="#BDC953"/>
</linearGradient>
</defs>
</svg>
