<svg width="20" height="20" viewBox="0 0 20 20" fill="none" xmlns="http://www.w3.org/2000/svg">
<path d="M0 4C0 1.79086 1.79086 0 4 0H16C18.2091 0 20 1.79086 20 4V16C20 18.2091 18.2091 20 16 20H4C1.79086 20 0 18.2091 0 16V4Z" fill="#F2B539"/>
<path d="M5.75477 12.582L5.50281 14H1.90516L2.14539 12.582H5.75477ZM3.9032 5.46875L2.42664 14H0.750859L2.22156 5.46875H3.9032ZM5.90711 8.92578L5.66687 10.3027H2.54383L2.7782 8.92578H5.90711ZM6.97352 5.46875L6.72156 6.89258H3.12977L3.38172 5.46875H6.97352ZM9.17969 5.46875L9.85352 8.39258L11.4297 5.46875H13.3926L10.7441 9.77539L12.0332 14H10.1699L9.50195 11.0176L7.89062 14H5.89844L8.61133 9.62891L7.33984 5.46875H9.17969ZM16.1788 11L14.3859 10.9941L14.6378 9.57031L16.2609 9.58203C16.5187 9.57812 16.7394 9.51562 16.923 9.39453C17.1066 9.26953 17.2491 9.10938 17.3507 8.91406C17.4562 8.71484 17.5265 8.49414 17.5616 8.25195C17.5851 8.07227 17.587 7.88086 17.5675 7.67773C17.548 7.47461 17.4855 7.29883 17.38 7.15039C17.2784 7.00195 17.1144 6.91992 16.8878 6.9043L15.6456 6.89258L14.4152 14H12.7452L14.2159 5.46875L16.964 5.47461C17.4835 5.49023 17.921 5.62305 18.2765 5.87305C18.6359 6.11914 18.8976 6.44922 19.0616 6.86328C19.2296 7.27734 19.2921 7.73633 19.2491 8.24023C19.1984 8.80664 19.0343 9.29492 18.757 9.70508C18.4835 10.1152 18.1261 10.4355 17.6847 10.666C17.2433 10.8926 16.7413 11.0039 16.1788 11Z" fill="#501E0A"/>
</svg>
