<svg width="20" height="20" viewBox="0 0 20 20" fill="none" xmlns="http://www.w3.org/2000/svg">
<path d="M0 4C0 1.79086 1.79086 0 4 0H16C18.2091 0 20 1.79086 20 4V16C20 18.2091 18.2091 20 16 20H4C1.79086 20 0 18.2091 0 16V4Z" fill="#97E7AC"/>
<path d="M8.16312 9.23438L7.82718 11.125H3.28812L3.61624 9.23438H8.16312ZM5.06155 4.625L3.0928 16H0.858429L2.81937 4.625H5.06155ZM10.5694 4.625L8.5928 16H6.38187L8.35843 4.625H10.5694Z" fill="black"/>
<path d="M15.0478 12L12.6572 11.9922L12.9931 10.0938L15.1572 10.1094C15.5009 10.1042 15.7952 10.0208 16.04 9.85938C16.2848 9.69271 16.4749 9.47917 16.6103 9.21875C16.7509 8.95312 16.8447 8.65885 16.8916 8.33594C16.9228 8.09635 16.9254 7.84115 16.8994 7.57031C16.8733 7.29948 16.79 7.0651 16.6494 6.86719C16.5139 6.66927 16.2952 6.5599 15.9931 6.53906L14.3369 6.52344L12.6962 16H10.4697L12.4306 4.625L16.0947 4.63281C16.7874 4.65365 17.3707 4.83073 17.8447 5.16406C18.3238 5.49219 18.6728 5.93229 18.8916 6.48438C19.1155 7.03646 19.1988 7.64844 19.1416 8.32031C19.0738 9.07552 18.8551 9.72656 18.4853 10.2734C18.1207 10.8203 17.6442 11.2474 17.0556 11.5547C16.4671 11.8568 15.7978 12.0052 15.0478 12Z" fill="black"/>
</svg>
