<svg width="20" height="20" viewBox="0 0 20 20" fill="none" xmlns="http://www.w3.org/2000/svg">
<path d="M0 4C0 1.79086 1.79086 0 4 0H16C18.2091 0 20 1.79086 20 4V16C20 18.2091 18.2091 20 16 20H4C1.79086 20 0 18.2091 0 16V4Z" fill="#3AED93"/>
<path fill-rule="evenodd" clip-rule="evenodd" d="M12.2674 13.9339C12.8632 13.5935 13.3657 13.1229 13.7304 12.5641L17.6839 16.2705L16.316 17.7295L12.2674 13.9339ZM6.26951 12.5641C6.63426 13.1229 7.13678 13.5935 7.73255 13.9339L3.68392 17.7295L2.31604 16.2705L6.26951 12.5641ZM9.99997 6.29411C9.65592 6.29411 9.32115 6.33149 8.99998 6.40216V2H11V6.40217C10.6788 6.33149 10.344 6.29411 9.99997 6.29411ZM14.375 10.4375C14.375 8.91144 13.4104 7.58816 12 6.93458V4.09637C14.8915 4.9063 17 7.42728 17 10.4118C17 11.5241 16.7071 12.5721 16.1899 13.4911L14.181 11.6004C14.3071 11.2328 14.375 10.8423 14.375 10.4375ZM7.99997 4.09637V6.93458C6.58958 7.58816 5.62497 8.91144 5.62497 10.4375C5.62497 10.8423 5.69285 11.2328 5.81891 11.6004L3.81005 13.4911C3.29287 12.5721 2.99997 11.5241 2.99997 10.4118C2.99997 7.42728 5.10848 4.9063 7.99997 4.09637ZM6.7282 16.2376L8.85256 14.2382C9.21824 14.3274 9.60293 14.375 9.99997 14.375C10.397 14.375 10.7817 14.3274 11.1474 14.2382L13.2717 16.2376C12.2953 16.7243 11.1819 17 9.99997 17C8.8181 17 7.70463 16.7243 6.7282 16.2376Z" fill="black"/>
</svg>
