<svg width="20" height="20" viewBox="0 0 20 20" fill="none" xmlns="http://www.w3.org/2000/svg">
<path d="M0 4C0 1.79086 1.79086 0 4 0H16C18.2091 0 20 1.79086 20 4V16C20 18.2091 18.2091 20 16 20H4C1.79086 20 0 18.2091 0 16V4Z" fill="#D3CEE1"/>
<path fill-rule="evenodd" clip-rule="evenodd" d="M17 6.5V3H13.5L10 6.79167L6.5 3H3V6.5L6.92492 10.123L6.36 10.735L4.75 9.125H3V10.875L4.68 12.555L3 14.375V17H5.625L7.445 15.32L9.125 17H10.875L12.555 15.32L14.375 17H17V14.375L15.32 12.555L17 10.875V9.125H15.25L13.64 10.735L13.0751 10.123L17 6.5ZM10 12.9615L9.265 13.64L10 14.375L10.735 13.64L10 12.9615Z" fill="#D3CEE1"/>
<path d="M17 3H17.75V2.25H17V3ZM17 6.5L17.5087 7.0511L17.75 6.82837V6.5H17ZM13.5 3V2.25H13.1716L12.9489 2.49129L13.5 3ZM10 6.79167L9.4489 7.30038L10 7.8974L10.5511 7.30038L10 6.79167ZM6.5 3L7.0511 2.49129L6.82837 2.25H6.5V3ZM3 3V2.25H2.25V3H3ZM3 6.5H2.25V6.82837L2.49129 7.0511L3 6.5ZM6.92492 10.123L7.47602 10.6317L7.98473 10.0806L7.43363 9.5719L6.92492 10.123ZM6.36 10.735L5.82967 11.2653L6.38164 11.8173L6.9111 11.2437L6.36 10.735ZM4.75 9.125L5.28033 8.59467L5.06066 8.375H4.75V9.125ZM3 9.125V8.375H2.25V9.125H3ZM3 10.875H2.25V11.1857L2.46967 11.4053L3 10.875ZM4.68 12.555L5.2311 13.0637L5.71987 12.5342L5.21033 12.0247L4.68 12.555ZM3 14.375L2.4489 13.8663L2.25 14.0818V14.375H3ZM3 17H2.25V17.75H3V17ZM5.625 17V17.75H5.91824L6.13371 17.5511L5.625 17ZM7.445 15.32L7.97533 14.7897L7.46579 14.2801L6.93629 14.7689L7.445 15.32ZM9.125 17L8.59467 17.5303L8.81434 17.75H9.125V17ZM10.875 17V17.75H11.1857L11.4053 17.5303L10.875 17ZM12.555 15.32L13.0637 14.7689L12.5342 14.2801L12.0247 14.7897L12.555 15.32ZM14.375 17L13.8663 17.5511L14.0818 17.75H14.375V17ZM17 17V17.75H17.75V17H17ZM17 14.375H17.75V14.0818L17.5511 13.8663L17 14.375ZM15.32 12.555L14.7897 12.0247L14.2801 12.5342L14.7689 13.0637L15.32 12.555ZM17 10.875L17.5303 11.4053L17.75 11.1857V10.875H17ZM17 9.125H17.75V8.375H17V9.125ZM15.25 9.125V8.375H14.9393L14.7197 8.59467L15.25 9.125ZM13.64 10.735L13.0889 11.2437L13.6184 11.8173L14.1703 11.2653L13.64 10.735ZM13.0751 10.123L12.5664 9.5719L12.0153 10.0806L12.524 10.6317L13.0751 10.123ZM10 12.9615L10.5087 12.4104L10 11.9409L9.49129 12.4104L10 12.9615ZM9.265 13.64L8.75629 13.0889L8.1827 13.6184L8.73467 14.1703L9.265 13.64ZM10 14.375L9.46967 14.9053L10 15.4357L10.5303 14.9053L10 14.375ZM10.735 13.64L11.2653 14.1703L11.8173 13.6184L11.2437 13.0889L10.735 13.64ZM16.25 3V6.5H17.75V3H16.25ZM13.5 3.75H17V2.25H13.5V3.75ZM10.5511 7.30038L14.0511 3.50871L12.9489 2.49129L9.4489 6.28296L10.5511 7.30038ZM10.5511 6.28296L7.0511 2.49129L5.9489 3.50871L9.4489 7.30038L10.5511 6.28296ZM6.5 2.25H3V3.75H6.5V2.25ZM2.25 3V6.5H3.75V3H2.25ZM2.49129 7.0511L6.41621 10.6741L7.43363 9.5719L3.50871 5.9489L2.49129 7.0511ZM6.9111 11.2437L7.47602 10.6317L6.37382 9.61429L5.8089 10.2263L6.9111 11.2437ZM4.21967 9.65533L5.82967 11.2653L6.89033 10.2047L5.28033 8.59467L4.21967 9.65533ZM3 9.875H4.75V8.375H3V9.875ZM3.75 10.875V9.125H2.25V10.875H3.75ZM5.21033 12.0247L3.53033 10.3447L2.46967 11.4053L4.14967 13.0853L5.21033 12.0247ZM3.5511 14.8837L5.2311 13.0637L4.1289 12.0463L2.4489 13.8663L3.5511 14.8837ZM3.75 17V14.375H2.25V17H3.75ZM5.625 16.25H3V17.75H5.625V16.25ZM6.93629 14.7689L5.11629 16.4489L6.13371 17.5511L7.95371 15.8711L6.93629 14.7689ZM9.65533 16.4697L7.97533 14.7897L6.91467 15.8503L8.59467 17.5303L9.65533 16.4697ZM9.125 17.75H10.875V16.25H9.125V17.75ZM11.4053 17.5303L13.0853 15.8503L12.0247 14.7897L10.3447 16.4697L11.4053 17.5303ZM12.0463 15.8711L13.8663 17.5511L14.8837 16.4489L13.0637 14.7689L12.0463 15.8711ZM14.375 17.75H17V16.25H14.375V17.75ZM17.75 17V14.375H16.25V17H17.75ZM17.5511 13.8663L15.8711 12.0463L14.7689 13.0637L16.4489 14.8837L17.5511 13.8663ZM15.8503 13.0853L17.5303 11.4053L16.4697 10.3447L14.7897 12.0247L15.8503 13.0853ZM17.75 10.875V9.125H16.25V10.875H17.75ZM17 8.375H15.25V9.875H17V8.375ZM14.7197 8.59467L13.1097 10.2047L14.1703 11.2653L15.7803 9.65533L14.7197 8.59467ZM14.1911 10.2263L13.6262 9.61429L12.524 10.6317L13.0889 11.2437L14.1911 10.2263ZM16.4913 5.9489L12.5664 9.5719L13.5838 10.6741L17.5087 7.0511L16.4913 5.9489ZM9.49129 12.4104L8.75629 13.0889L9.77371 14.1911L10.5087 13.5126L9.49129 12.4104ZM8.73467 14.1703L9.46967 14.9053L10.5303 13.8447L9.79533 13.1097L8.73467 14.1703ZM10.2047 13.1097L9.46967 13.8447L10.5303 14.9053L11.2653 14.1703L10.2047 13.1097ZM9.49129 13.5126L10.2263 14.1911L11.2437 13.0889L10.5087 12.4104L9.49129 13.5126Z" fill="black"/>
</svg>
